<svg width="30" height="30" viewBox="0 0 30 30" fill="white" xmlns="http://www.w3.org/2000/svg">
    <path d="M26.389 0C28.3365 0 29.9072 1.42125 30 3.09375V30L26.2921 27.1588L24.256 25.4862L22.0343 23.7388L22.9623 26.495H3.51817C1.57625 26.495 0 25.1637 0 23.4V3.1C0 1.4275 1.57902 0.00375 3.52509 0.00375H26.3793L26.389 0ZM17.915 7.10375H17.8734L17.5936 7.35375C20.4649 8.10375 21.8542 9.275 21.8542 9.275C20.0037 8.44 18.336 8.0225 16.6684 7.85375C15.4633 7.685 14.2583 7.77375 13.2402 7.85375H12.9632C12.3122 7.85375 10.9271 8.10375 9.07106 8.7725C8.42421 9.02625 8.053 9.1925 8.053 9.1925C8.053 9.1925 9.44088 7.94 12.4992 7.27125L12.3122 7.1025C12.3122 7.1025 9.99631 7.0225 7.49619 8.69C7.49619 8.69 4.99608 12.62 4.99608 17.465C4.99608 17.465 6.38118 19.64 10.1805 19.7225C10.1805 19.7225 10.7346 19.0563 11.2955 18.47C9.16247 17.885 8.33141 16.715 8.33141 16.715C8.33141 16.715 8.51701 16.7975 8.79542 16.965H8.87853C8.92008 16.965 8.93947 16.9837 8.96163 17.0025V17.01C8.98379 17.03 9.00319 17.0475 9.04474 17.0475C9.50182 17.2175 9.95891 17.385 10.3329 17.5475C11.1327 17.8565 11.9693 18.0813 12.8261 18.2175C14.1142 18.3862 15.5907 18.4675 17.2723 18.2175C18.1033 18.0487 18.9344 17.8837 19.7655 17.5487C20.3056 17.2987 20.9705 17.0487 21.7004 16.6275C21.7004 16.6275 20.8694 17.7975 18.6463 18.3825C19.1034 18.965 19.7474 19.6325 19.7474 19.6325C23.5482 19.5575 25.0247 17.3825 25.1078 17.475C25.1078 12.6375 22.5938 8.7 22.5938 8.7C20.3292 7.1825 18.21 7.125 17.836 7.125L17.9136 7.1L17.915 7.10375ZM18.1477 12.62C19.1214 12.62 19.9067 13.37 19.9067 14.2887C19.9067 15.2137 19.1172 15.9637 18.1477 15.9637C17.1781 15.9637 16.3886 15.2137 16.3886 14.2963C16.3913 13.3713 17.1822 12.6237 18.1477 12.6237V12.62ZM11.8551 12.62C12.8247 12.62 13.6087 13.37 13.6087 14.2887C13.6087 15.2137 12.8191 15.9637 11.8496 15.9637C10.88 15.9637 10.0905 15.2137 10.0905 14.2963C10.0905 13.3713 10.88 12.6237 11.8496 12.6237L11.8551 12.62Z"/>
</svg>
