<svg width="200" height="200" viewBox="0 0 200 200" fill="white" xmlns="http://www.w3.org/2000/svg">
    <path d="M101.868 10.3516V59.3387L101.87 59.6434C102.033 69.6795 110.221 77.765 120.298 77.765H171.094V157.313C171.094 170.964 160.025 182.031 146.37 182.031H49.7236C36.0691 182.031 25 170.964 25 157.313V35.0699C25 21.4184 36.0691 10.3516 49.7236 10.3516H101.868ZM129.808 135.965L55.1873 136.19L55.0494 136.192C51.8859 136.275 49.3518 138.87 49.3611 142.05C49.3709 145.245 51.943 147.833 55.126 147.874L55.2227 147.875L129.843 147.65L129.981 147.648C133.144 147.566 135.679 144.971 135.669 141.79C135.659 138.564 133.035 135.956 129.808 135.965V135.965ZM95.4002 94.6184H55.1178L54.9799 94.6201C51.8162 94.6934 49.274 97.2803 49.274 100.461C49.274 103.655 51.8385 106.251 55.0211 106.303L55.1178 106.304H95.4004L95.5383 106.302C98.702 106.229 101.244 103.642 101.244 100.461C101.244 97.2344 98.6277 94.6184 95.4004 94.6184H95.4002ZM109.405 12.0887L109.517 12.1932L167.944 68.1529C168.185 68.3838 168.406 68.6348 168.605 68.9031C169.089 69.4093 169.512 69.9701 169.866 70.5742H120.298L120.112 70.5729C113.991 70.4736 109.06 65.4818 109.06 59.3387V11.7984C109.178 11.89 109.293 11.9867 109.405 12.0887V12.0887Z" />
</svg>
