<svg width="31" height="31" viewBox="0 0 31 31" fill="white" xmlns="http://www.w3.org/2000/svg">
    <path d="M30.5322 15.7144C30.5322 19.0644 29.5785 22.0775 27.6709 24.7536C25.7633 27.4296 23.2992 29.2815 20.2783 30.3092C19.9268 30.376 19.6696 30.3293 19.5068 30.1691C19.3441 30.0089 19.2627 29.8087 19.2627 29.5685V25.3442C19.2627 24.0495 18.9242 23.1019 18.2471 22.5013C18.9893 22.4212 19.6566 22.3011 20.249 22.1409C20.8415 21.9808 21.4535 21.7205 22.085 21.3601C22.7165 20.9998 23.2438 20.556 23.667 20.0288C24.0902 19.5016 24.4352 18.8008 24.7022 17.9266C24.9691 17.0524 25.1025 16.048 25.1025 14.9135C25.1025 13.2986 24.5882 11.9238 23.5596 10.7893C24.0413 9.57477 23.9893 8.21338 23.4033 6.70518C23.0387 6.58505 22.5114 6.65846 21.8213 6.9254C21.1312 7.19234 20.5322 7.48597 20.0244 7.8063L19.2822 8.28679C18.0713 7.93977 16.8213 7.76626 15.5322 7.76626C14.2432 7.76626 12.9932 7.93977 11.7822 8.28679C11.5739 8.13997 11.2972 7.95979 10.9521 7.74624C10.6071 7.53269 10.0635 7.27576 9.32129 6.97545C8.5791 6.67515 8.01921 6.58505 7.6416 6.70518C7.06869 8.21338 7.02311 9.57477 7.50488 10.7893C6.47624 11.9238 5.96192 13.2986 5.96192 14.9135C5.96192 16.048 6.09538 17.0491 6.3623 17.9166C6.62923 18.7842 6.97103 19.4849 7.3877 20.0187C7.80436 20.5526 8.32845 20.9998 8.95996 21.3601C9.59147 21.7205 10.2035 21.9808 10.7959 22.1409C11.3883 22.3011 12.0557 22.4212 12.7979 22.5013C12.277 22.9818 11.958 23.6691 11.8408 24.5634C11.5674 24.6969 11.2744 24.797 10.9619 24.8637C10.6494 24.9304 10.2783 24.9638 9.84863 24.9638C9.41895 24.9638 8.99251 24.8203 8.56934 24.5334C8.14616 24.2464 7.78483 23.8293 7.48535 23.2821C7.23796 22.855 6.9222 22.508 6.53809 22.241C6.15397 21.9741 5.83171 21.8139 5.57129 21.7605L5.18066 21.7005C4.90723 21.7005 4.71842 21.7305 4.61426 21.7906C4.51009 21.8506 4.47754 21.9274 4.5166 22.0208C4.55566 22.1142 4.61426 22.2076 4.69238 22.3011C4.77051 22.3945 4.85514 22.4746 4.94629 22.5413L5.08301 22.6414C5.36947 22.7749 5.65267 23.0285 5.93262 23.4022C6.21257 23.7759 6.41764 24.1163 6.54785 24.4232L6.74317 24.8837C6.91244 25.3909 7.19889 25.8013 7.60254 26.115C8.00619 26.4286 8.44238 26.6288 8.91113 26.7156C9.37988 26.8023 9.83236 26.849 10.2686 26.8557C10.7048 26.8624 11.0661 26.839 11.3525 26.7857L11.8018 26.7056C11.8018 27.2128 11.805 27.8067 11.8115 28.4874C11.818 29.1681 11.8213 29.5284 11.8213 29.5685C11.8213 29.8087 11.7367 30.0089 11.5674 30.1691C11.3981 30.3293 11.1377 30.376 10.7861 30.3092C7.7653 29.2815 5.30111 27.4296 3.39355 24.7536C1.486 22.0775 0.532227 19.0644 0.532227 15.7144C0.532227 12.9249 1.2028 10.3522 2.54395 7.99649C3.88509 5.64076 5.70475 3.77552 8.00293 2.40079C10.3011 1.02605 12.8109 0.338684 15.5322 0.338684C18.2536 0.338684 20.7633 1.02605 23.0615 2.40079C25.3597 3.77552 27.1794 5.64076 28.5205 7.99649C29.8617 10.3522 30.5322 12.9249 30.5322 15.7144Z" />
</svg>
