<svg width="31" height="31" viewBox="0 0 31 31" fill="white" xmlns="http://www.w3.org/2000/svg">
    <path d="M15.8467 0.846802C7.5632 0.846802 0.84668 7.56332 0.84668 15.8468C0.84668 24.1303 7.5632 30.8468 15.8467 30.8468C24.1302 30.8468 30.8467 24.1303 30.8467 15.8468C30.8467 7.56332 24.1302 0.846802 15.8467 0.846802ZM23.0554 12.1537C23.0654 12.3111 23.0654 12.4752 23.0654 12.6359C23.0654 17.551 19.3221 23.2129 12.4817 23.2129C10.3723 23.2129 8.41699 22.6001 6.76967 21.5455C7.07101 21.5789 7.35896 21.5923 7.66699 21.5923C9.40806 21.5923 11.0085 21.0031 12.2842 20.0053C10.6503 19.9718 9.27748 18.9004 8.80873 17.4272C9.38128 17.5109 9.8969 17.5109 10.4862 17.3602C8.7853 17.0153 7.50963 15.5187 7.50963 13.7106V13.6638C8.00181 13.9417 8.58105 14.1124 9.18708 14.1359C8.15248 13.4461 7.52972 12.2843 7.52972 11.0421C7.52972 10.349 7.71052 9.71622 8.0353 9.16711C9.86677 11.4238 12.619 12.897 15.7027 13.0544C15.177 10.5265 17.0654 8.48073 19.3355 8.48073C20.4069 8.48073 21.3712 8.92939 22.0509 9.65261C22.8913 9.49524 23.6949 9.18051 24.4114 8.75863C24.1335 9.61912 23.5509 10.3457 22.7775 10.8044C23.5275 10.724 24.2507 10.5164 24.9203 10.2252C24.4148 10.9685 23.7819 11.6281 23.0554 12.1537Z"/>
</svg>
